<svg version="1.1" id="Layer_1" xmlns="http://www.w3.org/2000/svg" xmlns:xlink="http://www.w3.org/1999/xlink" x="0px" y="0px"
	 width="100%" viewBox="0 0 512 512" enable-background="new 0 0 512 512" xml:space="preserve">
<path fill="none" opacity="1.000000" stroke="none" 
	d="
M300.000000,513.000000 
	C200.024277,513.000000 100.548546,513.000000 1.036411,513.000000 
	C1.036411,342.399261 1.036411,171.798492 1.036411,1.098866 
	C171.559067,1.098866 342.118225,1.098866 512.838684,1.098866 
	C512.838684,171.666550 512.838684,342.333252 512.838684,513.000000 
	C442.131805,513.000000 371.315887,513.000000 300.000000,513.000000 
M196.500000,231.070526 
	C181.100647,231.070526 165.701279,231.070526 150.013687,231.070526 
	C159.702530,283.637451 169.352798,335.493866 178.670883,387.409882 
	C179.503616,392.049469 180.885071,393.303192 185.481094,393.295685 
	C269.469116,393.158600 353.457428,393.195526 437.445679,393.195496 
	C439.235870,393.195496 441.026062,393.195496 443.018036,393.195496 
	C454.721802,338.982910 466.323700,285.242126 478.018616,231.070541 
	C384.108185,231.070541 290.804077,231.070541 196.500000,231.070526 
M454.128448,424.990509 
	C460.393890,421.727570 462.714447,417.439270 461.233154,411.861481 
	C459.685730,406.034912 455.375641,403.361206 448.180847,403.758087 
	C447.349579,403.803955 446.516693,403.846771 445.684540,403.846832 
	C356.353760,403.851196 267.022980,403.839722 177.692230,403.884979 
	C173.080734,403.887329 170.808060,401.991333 169.974091,397.364746 
	C164.212448,365.401184 158.288223,333.466919 152.403229,301.525604 
	C146.638885,270.239197 140.802185,238.965988 135.101807,207.667938 
	C129.144958,174.961609 123.364731,142.223083 117.393967,109.519310 
	C115.638649,99.904900 112.516838,97.443810 102.877785,97.433273 
	C78.211853,97.406319 53.545856,97.414917 28.879930,97.443481 
	C27.056435,97.445595 25.195433,97.537384 23.417164,97.904106 
	C18.477697,98.922737 15.052669,103.216125 14.955059,108.263168 
	C14.852767,113.552307 18.264648,118.062813 23.423889,119.102371 
	C25.523657,119.525459 27.727030,119.553619 29.883587,119.557045 
	C50.049629,119.589081 70.216156,119.646706 90.381508,119.524727 
	C95.042313,119.496536 97.225792,121.280594 98.082298,125.971275 
	C115.594124,221.874435 133.219238,317.756897 150.829773,413.642059 
	C152.548294,422.999054 155.773788,425.652893 165.395264,425.673218 
	C174.394958,425.692200 183.400162,425.848572 192.390869,425.563660 
	C194.807907,425.487061 197.575378,424.553223 199.512970,423.112885 
	C218.229294,409.200317 242.420990,409.261047 261.124969,423.314056 
	C262.837067,424.600403 265.276764,425.563324 267.385956,425.577515 
	C290.884216,425.735657 314.384186,425.725952 337.882721,425.588654 
	C339.852234,425.577148 342.150696,424.759430 343.728851,423.565948 
	C362.924927,409.049530 386.899231,409.015839 406.029877,423.590424 
	C407.173737,424.461884 408.590576,425.568420 409.878662,425.566223 
	C424.363068,425.541656 438.847137,425.321045 454.128448,424.990509 
M336.961517,475.361420 
	C344.554779,495.320496 362.470032,505.758636 382.705902,502.013916 
	C402.154663,498.414856 416.426270,479.696899 414.855347,459.848083 
	C413.270142,439.818512 395.972260,423.337891 376.175507,422.995819 
	C348.361298,422.515198 329.334564,447.403381 336.961517,475.361420 
M264.445190,442.156738 
	C254.572372,427.348297 238.971237,420.594482 222.326447,423.923309 
	C202.930115,427.802429 188.560318,446.257050 190.249420,465.118713 
	C192.140808,486.239288 208.729492,502.496674 229.170334,502.848114 
	C260.345886,503.384125 280.435608,470.401855 264.445190,442.156738 
M384.500000,202.931656 
	C419.953186,202.931656 455.406403,202.931656 490.870331,202.931656 
	C490.683472,196.354233 488.482849,194.669098 480.426819,194.668518 
	C369.950714,194.660614 259.474609,194.662796 148.998489,194.662506 
	C147.380737,194.662491 145.762970,194.662506 143.527100,194.662506 
	C144.113708,197.817062 144.576096,200.303619 145.064789,202.931641 
	C224.892334,202.931641 304.196167,202.931641 384.500000,202.931656 
M161.504959,212.924973 
	C156.713989,212.924973 151.923004,212.924973 146.700638,212.924973 
	C147.356995,216.017776 147.885010,218.505707 148.413956,220.998108 
	C149.543060,220.998108 150.205154,220.998108 150.867249,220.998108 
	C261.175568,220.998428 371.483887,220.998795 481.792206,220.998154 
	C482.625214,220.998154 483.474670,221.087982 484.288513,220.959229 
	C488.620972,220.273819 491.113159,217.963562 491.054382,212.924973 
	C381.404358,212.924973 271.954041,212.924973 161.504959,212.924973 
M321.047638,51.500004 
	C321.047211,42.167488 321.093018,32.834663 321.031708,23.502550 
	C320.983185,16.116423 316.588379,11.190221 310.168701,11.144391 
	C303.812653,11.099015 299.154205,16.106268 299.123230,23.393330 
	C299.045288,41.724751 299.039398,60.057003 299.127838,78.388336 
	C299.162964,85.668304 303.852936,90.544846 310.312378,90.430527 
	C316.638000,90.318581 320.966187,85.583107 321.027191,78.497612 
	C321.101776,69.832329 321.046661,61.165928 321.047638,51.500004 
M400.086334,119.589027 
	C411.383545,108.289658 422.716797,97.025978 433.962006,85.675072 
	C439.178406,80.409668 439.495911,73.901054 434.985016,69.301819 
	C430.427277,64.654823 423.944183,64.888252 418.626221,70.077690 
	C412.551514,76.005569 406.597992,82.057831 400.600647,88.064835 
	C393.309998,95.367188 385.899323,102.555847 378.791290,110.032059 
	C374.483307,114.563248 374.778534,121.189713 378.938812,125.320213 
	C383.098328,129.449966 389.550873,129.503082 394.252289,125.345055 
	C396.119202,123.693901 397.812988,121.847015 400.086334,119.589027 
M217.531876,85.968170 
	C212.232483,80.672752 206.978836,75.330498 201.620758,70.095154 
	C196.335480,64.930939 189.820984,64.663200 185.256592,69.283806 
	C180.671356,73.925499 180.968018,80.334633 186.247040,85.653824 
	C199.029755,98.533791 211.868088,111.358910 224.738235,124.151588 
	C230.152878,129.533646 236.935623,129.853333 241.488922,125.117554 
	C245.962036,120.465164 245.538681,114.063309 240.268280,108.730072 
	C232.896072,101.269981 225.447693,93.885147 217.531876,85.968170 
z"/>
<path fill="#FA374F" opacity="1.000000" stroke="none" 
	d="
M197.000000,231.070526 
	C290.804077,231.070541 384.108185,231.070541 478.018616,231.070541 
	C466.323700,285.242126 454.721802,338.982910 443.018036,393.195496 
	C441.026062,393.195496 439.235870,393.195496 437.445679,393.195496 
	C353.457428,393.195526 269.469116,393.158600 185.481094,393.295685 
	C180.885071,393.303192 179.503616,392.049469 178.670883,387.409882 
	C169.352798,335.493866 159.702530,283.637451 150.013687,231.070526 
	C165.701279,231.070526 181.100647,231.070526 197.000000,231.070526 
M235.229507,285.512756 
	C235.228760,283.350250 235.245529,281.187592 235.224350,279.025299 
	C235.104340,266.768707 227.331802,258.324219 215.953613,258.077026 
	C204.248322,257.822693 195.661789,266.118958 195.544388,278.437500 
	C195.344635,299.394867 195.229126,320.361237 195.693771,341.310181 
	C195.793518,345.807892 197.642929,350.846771 200.215607,354.583496 
	C204.918350,361.414093 214.136368,363.432739 222.230667,360.673920 
	C229.993179,358.028229 235.115082,351.081421 235.175659,342.399261 
	C235.305634,323.769714 235.224380,305.138672 235.229507,285.512756 
M359.616760,269.163025 
	C354.135956,259.917572 345.696045,256.221436 336.059235,258.846313 
	C326.943512,261.329285 321.827454,268.527588 321.806488,279.141541 
	C321.765686,299.786896 321.522125,320.438782 322.004059,341.072968 
	C322.112701,345.725433 323.929291,350.953796 326.583862,354.794373 
	C331.180939,361.445312 340.357300,363.532166 348.212860,360.700470 
	C356.358185,357.764343 361.258240,351.777222 361.371765,343.079651 
	C361.658539,321.107391 361.533417,299.128906 361.426544,277.153625 
	C361.414703,274.723389 360.452393,272.297791 359.616760,269.163025 
M258.693085,332.495056 
	C258.700195,335.828217 258.618896,339.164307 258.730621,342.493958 
	C259.100555,353.515869 267.320435,361.634399 278.210999,361.815613 
	C289.054352,361.996063 298.039642,354.081879 298.206482,343.086853 
	C298.542694,320.927856 298.598663,298.752319 298.031738,276.602478 
	C297.920380,272.251770 295.366089,267.185364 292.374725,263.852722 
	C286.605286,257.425018 278.735809,256.419037 270.789246,259.623596 
	C263.154846,262.702271 258.844910,268.644318 258.773499,276.999542 
	C258.618225,295.164246 258.705078,313.331024 258.693085,332.495056 
M424.684357,326.498932 
	C424.682861,310.528961 424.811890,294.557587 424.637604,278.589508 
	C424.503296,266.284119 416.011688,257.905396 404.310883,258.077362 
	C392.928314,258.244629 384.918091,266.751434 384.890808,278.867096 
	C384.843933,299.661194 384.835754,320.455627 384.894684,341.249664 
	C384.928650,353.234528 393.128967,361.715759 404.584656,361.816254 
	C415.723816,361.913971 424.185364,353.620056 424.641968,341.969635 
	C424.830719,337.152618 424.680298,332.322327 424.684357,326.498932 
z"/>
<path fill="#C2DFFB" opacity="1.000000" stroke="none" 
	d="
M453.729858,425.071838 
	C438.847137,425.321045 424.363068,425.541656 409.878662,425.566223 
	C408.590576,425.568420 407.173737,424.461884 406.029877,423.590424 
	C386.899231,409.015839 362.924927,409.049530 343.728851,423.565948 
	C342.150696,424.759430 339.852234,425.577148 337.882721,425.588654 
	C314.384186,425.725952 290.884216,425.735657 267.385956,425.577515 
	C265.276764,425.563324 262.837067,424.600403 261.124969,423.314056 
	C242.420990,409.261047 218.229294,409.200317 199.512970,423.112885 
	C197.575378,424.553223 194.807907,425.487061 192.390869,425.563660 
	C183.400162,425.848572 174.394958,425.692200 165.395264,425.673218 
	C155.773788,425.652893 152.548294,422.999054 150.829773,413.642059 
	C133.219238,317.756897 115.594124,221.874435 98.082298,125.971275 
	C97.225792,121.280594 95.042313,119.496536 90.381508,119.524727 
	C70.216156,119.646706 50.049629,119.589081 29.883587,119.557045 
	C27.727030,119.553619 25.523657,119.525459 23.423889,119.102371 
	C18.264648,118.062813 14.852767,113.552307 14.955059,108.263168 
	C15.052669,103.216125 18.477697,98.922737 23.417164,97.904106 
	C25.195433,97.537384 27.056435,97.445595 28.879930,97.443481 
	C53.545856,97.414917 78.211853,97.406319 102.877785,97.433273 
	C112.516838,97.443810 115.638649,99.904900 117.393967,109.519310 
	C123.364731,142.223083 129.144958,174.961609 135.101807,207.667938 
	C140.802185,238.965988 146.638885,270.239197 152.403229,301.525604 
	C158.288223,333.466919 164.212448,365.401184 169.974091,397.364746 
	C170.808060,401.991333 173.080734,403.887329 177.692230,403.884979 
	C267.022980,403.839722 356.353760,403.851196 445.684540,403.846832 
	C446.516693,403.846771 447.349579,403.803955 448.180847,403.758087 
	C455.375641,403.361206 459.685730,406.034912 461.233154,411.861481 
	C462.714447,417.439270 460.393890,421.727570 453.729858,425.071838 
z"/>
<path fill="#294995" opacity="1.000000" stroke="none" 
	d="
M336.847137,474.975464 
	C329.334564,447.403381 348.361298,422.515198 376.175507,422.995819 
	C395.972260,423.337891 413.270142,439.818512 414.855347,459.848083 
	C416.426270,479.696899 402.154663,498.414856 382.705902,502.013916 
	C362.470032,505.758636 344.554779,495.320496 336.847137,474.975464 
M357.895142,478.573914 
	C366.490021,486.799835 377.160614,488.400208 386.589355,482.877563 
	C395.547577,477.630585 400.023285,467.017517 397.423065,457.187744 
	C395.045288,448.198669 387.324982,441.110107 378.686768,439.984589 
	C368.656799,438.677673 359.705261,442.860046 354.897614,451.099335 
	C349.832550,459.779877 350.726746,469.440491 357.895142,478.573914 
z"/>
<path fill="#294995" opacity="1.000000" stroke="none" 
	d="
M264.641083,442.469360 
	C280.435608,470.401855 260.345886,503.384125 229.170334,502.848114 
	C208.729492,502.496674 192.140808,486.239288 190.249420,465.118713 
	C188.560318,446.257050 202.930115,427.802429 222.326447,423.923309 
	C238.971237,420.594482 254.572372,427.348297 264.641083,442.469360 
M208.946793,453.704346 
	C208.577621,454.806061 208.151917,455.892426 207.848221,457.011902 
	C205.400833,466.033081 208.825729,475.889832 216.302429,481.411438 
	C223.933731,487.047211 234.185394,487.609039 242.144531,482.827545 
	C250.217102,477.977966 254.587799,468.705658 253.156937,459.465210 
	C251.650803,449.738678 244.519455,441.977112 235.406174,440.145782 
	C224.480011,437.950165 215.303955,442.446014 208.946793,453.704346 
z"/>
<path fill="#F5657D" opacity="1.000000" stroke="none" 
	d="
M384.000000,202.931641 
	C304.196167,202.931641 224.892334,202.931641 145.064789,202.931641 
	C144.576096,200.303619 144.113708,197.817062 143.527100,194.662506 
	C145.762970,194.662506 147.380737,194.662491 148.998489,194.662506 
	C259.474609,194.662796 369.950714,194.660614 480.426819,194.668518 
	C488.482849,194.669098 490.683472,196.354233 490.870331,202.931656 
	C455.406403,202.931656 419.953186,202.931656 384.000000,202.931641 
z"/>
<path fill="#F9677F" opacity="1.000000" stroke="none" 
	d="
M162.004349,212.924973 
	C271.954041,212.924973 381.404358,212.924973 491.054382,212.924973 
	C491.113159,217.963562 488.620972,220.273819 484.288513,220.959229 
	C483.474670,221.087982 482.625214,220.998154 481.792206,220.998154 
	C371.483887,220.998795 261.175568,220.998428 150.867249,220.998108 
	C150.205154,220.998108 149.543060,220.998108 148.413956,220.998108 
	C147.885010,218.505707 147.356995,216.017776 146.700638,212.924973 
	C151.923004,212.924973 156.713989,212.924973 162.004349,212.924973 
z"/>
<path fill="#F7C934" opacity="1.000000" stroke="none" 
	d="
M321.047638,52.000008 
	C321.046661,61.165928 321.101776,69.832329 321.027191,78.497612 
	C320.966187,85.583107 316.638000,90.318581 310.312378,90.430527 
	C303.852936,90.544846 299.162964,85.668304 299.127838,78.388336 
	C299.039398,60.057003 299.045288,41.724751 299.123230,23.393330 
	C299.154205,16.106268 303.812653,11.099015 310.168701,11.144391 
	C316.588379,11.190221 320.983185,16.116423 321.031708,23.502550 
	C321.093018,32.834663 321.047211,42.167488 321.047638,52.000008 
z"/>
<path fill="#F7C934" opacity="1.000000" stroke="none" 
	d="
M399.835968,119.839134 
	C397.812988,121.847015 396.119202,123.693901 394.252289,125.345055 
	C389.550873,129.503082 383.098328,129.449966 378.938812,125.320213 
	C374.778534,121.189713 374.483307,114.563248 378.791290,110.032059 
	C385.899323,102.555847 393.309998,95.367188 400.600647,88.064835 
	C406.597992,82.057831 412.551514,76.005569 418.626221,70.077690 
	C423.944183,64.888252 430.427277,64.654823 434.985016,69.301819 
	C439.495911,73.901054 439.178406,80.409668 433.962006,85.675072 
	C422.716797,97.025978 411.383545,108.289658 399.835968,119.839134 
z"/>
<path fill="#F7C934" opacity="1.000000" stroke="none" 
	d="
M217.781891,86.218140 
	C225.447693,93.885147 232.896072,101.269981 240.268280,108.730072 
	C245.538681,114.063309 245.962036,120.465164 241.488922,125.117554 
	C236.935623,129.853333 230.152878,129.533646 224.738235,124.151588 
	C211.868088,111.358910 199.029755,98.533791 186.247040,85.653824 
	C180.968018,80.334633 180.671356,73.925499 185.256592,69.283806 
	C189.820984,64.663200 196.335480,64.930939 201.620758,70.095154 
	C206.978836,75.330498 212.232483,80.672752 217.781891,86.218140 
z"/>
<path fill="#080304" opacity="1.000000" stroke="none" 
	d="
M235.229553,286.010498 
	C235.224380,305.138672 235.305634,323.769714 235.175659,342.399261 
	C235.115082,351.081421 229.993179,358.028229 222.230667,360.673920 
	C214.136368,363.432739 204.918350,361.414093 200.215607,354.583496 
	C197.642929,350.846771 195.793518,345.807892 195.693771,341.310181 
	C195.229126,320.361237 195.344635,299.394867 195.544388,278.437500 
	C195.661789,266.118958 204.248322,257.822693 215.953613,258.077026 
	C227.331802,258.324219 235.104340,266.768707 235.224350,279.025299 
	C235.245529,281.187592 235.228760,283.350250 235.229553,286.010498 
M225.198013,334.466736 
	C225.194458,315.662079 225.251160,296.857147 225.152466,278.052979 
	C225.120819,272.023682 221.276932,268.223999 215.622528,268.109467 
	C209.964676,267.994873 205.733047,271.720215 205.694717,277.647156 
	C205.554810,299.279083 205.554871,320.913330 205.730377,342.544861 
	C205.775894,348.153442 210.054214,351.814636 215.473190,351.770416 
	C220.950485,351.725708 224.827454,348.033905 225.142365,342.438507 
	C225.273087,340.115631 225.186066,337.780457 225.198013,334.466736 
z"/>
<path fill="#080304" opacity="1.000000" stroke="none" 
	d="
M359.773834,269.516541 
	C360.452393,272.297791 361.414703,274.723389 361.426544,277.153625 
	C361.533417,299.128906 361.658539,321.107391 361.371765,343.079651 
	C361.258240,351.777222 356.358185,357.764343 348.212860,360.700470 
	C340.357300,363.532166 331.180939,361.445312 326.583862,354.794373 
	C323.929291,350.953796 322.112701,345.725433 322.004059,341.072968 
	C321.522125,320.438782 321.765686,299.786896 321.806488,279.141541 
	C321.827454,268.527588 326.943512,261.329285 336.059235,258.846313 
	C345.696045,256.221436 354.135956,259.917572 359.773834,269.516541 
M331.825287,314.499969 
	C331.826141,323.153229 331.794373,331.806671 331.837982,340.459717 
	C331.874207,347.646088 335.426544,351.730560 341.557892,351.772980 
	C347.621338,351.814880 351.393585,347.661865 351.415741,340.539795 
	C351.479431,320.071716 351.485504,299.603119 351.411285,279.135132 
	C351.385681,272.071533 347.518463,267.981110 341.388428,268.110352 
	C335.408569,268.236420 331.875519,272.205383 331.842926,279.053375 
	C331.788269,290.535339 331.826263,302.017731 331.825287,314.499969 
z"/>
<path fill="#080304" opacity="1.000000" stroke="none" 
	d="
M258.692993,331.996002 
	C258.705078,313.331024 258.618225,295.164246 258.773499,276.999542 
	C258.844910,268.644318 263.154846,262.702271 270.789246,259.623596 
	C278.735809,256.419037 286.605286,257.425018 292.374725,263.852722 
	C295.366089,267.185364 297.920380,272.251770 298.031738,276.602478 
	C298.598663,298.752319 298.542694,320.927856 298.206482,343.086853 
	C298.039642,354.081879 289.054352,361.996063 278.210999,361.815613 
	C267.320435,361.634399 259.100555,353.515869 258.730621,342.493958 
	C258.618896,339.164307 258.700195,335.828217 258.692993,331.996002 
M268.725555,302.499939 
	C268.727325,315.311584 268.677399,328.123505 268.751862,340.934723 
	C268.791260,347.715302 272.485138,351.718811 278.449219,351.755371 
	C284.414215,351.791931 288.247772,347.777252 288.270782,341.050568 
	C288.341888,320.252686 288.345917,299.454254 288.267670,278.656433 
	C288.242584,271.993469 284.310822,268.001648 278.316895,268.108978 
	C272.512390,268.212982 268.844452,272.102844 268.756866,278.539124 
	C268.652740,286.191437 268.727936,293.846191 268.725555,302.499939 
z"/>
<path fill="#070203" opacity="1.000000" stroke="none" 
	d="
M424.684265,326.998505 
	C424.680298,332.322327 424.830719,337.152618 424.641968,341.969635 
	C424.185364,353.620056 415.723816,361.913971 404.584656,361.816254 
	C393.128967,361.715759 384.928650,353.234528 384.894684,341.249664 
	C384.835754,320.455627 384.843933,299.661194 384.890808,278.867096 
	C384.918091,266.751434 392.928314,258.244629 404.310883,258.077362 
	C416.011688,257.905396 424.503296,266.284119 424.637604,278.589508 
	C424.811890,294.557587 424.682861,310.528961 424.684265,326.998505 
M394.887115,307.500000 
	C394.888184,318.658325 394.848053,329.816895 394.905731,340.974915 
	C394.940399,347.687561 398.679565,351.757385 404.646118,351.792755 
	C410.353119,351.826569 414.539612,347.856995 414.583435,341.567108 
	C414.730713,320.417328 414.739166,299.265137 414.581329,278.115509 
	C414.534637,271.860687 410.266724,267.977722 404.492584,268.095428 
	C398.644806,268.214661 394.966644,272.115570 394.911682,278.521088 
	C394.831635,287.846771 394.888550,297.173645 394.887115,307.500000 
z"/>
<path fill="#020304" opacity="1.000000" stroke="none" 
	d="
M357.643738,478.312622 
	C350.726746,469.440491 349.832550,459.779877 354.897614,451.099335 
	C359.705261,442.860046 368.656799,438.677673 378.686768,439.984589 
	C387.324982,441.110107 395.045288,448.198669 397.423065,457.187744 
	C400.023285,467.017517 395.547577,477.630585 386.589355,482.877563 
	C377.160614,488.400208 366.490021,486.799835 357.643738,478.312622 
M388.045654,462.570526 
	C386.680664,451.538422 376.001831,446.046326 367.467682,451.987396 
	C362.464386,455.470459 360.446228,461.741699 362.518372,467.366943 
	C364.598602,473.014130 370.178802,476.528076 376.188538,475.975311 
	C382.638702,475.381989 386.937378,470.817108 388.045654,462.570526 
z"/>
<path fill="#030305" opacity="1.000000" stroke="none" 
	d="
M209.077087,453.343140 
	C215.303955,442.446014 224.480011,437.950165 235.406174,440.145782 
	C244.519455,441.977112 251.650803,449.738678 253.156937,459.465210 
	C254.587799,468.705658 250.217102,477.977966 242.144531,482.827545 
	C234.185394,487.609039 223.933731,487.047211 216.302429,481.411438 
	C208.825729,475.889832 205.400833,466.033081 207.848221,457.011902 
	C208.151917,455.892426 208.577621,454.806061 209.077087,453.343140 
M222.781525,452.005371 
	C217.865311,455.878510 215.813934,460.748169 217.805038,466.890625 
	C219.573380,472.345734 223.515533,475.321625 229.113373,475.941650 
	C234.598099,476.549164 239.673935,473.548676 242.098190,468.589447 
	C244.542847,463.588501 243.480286,457.357513 239.514801,453.440033 
	C235.339218,449.315002 229.806290,448.678711 222.781525,452.005371 
z"/>
<path fill="#F8677E" opacity="1.000000" stroke="none" 
	d="
M225.198029,334.958801 
	C225.186066,337.780457 225.273087,340.115631 225.142365,342.438507 
	C224.827454,348.033905 220.950485,351.725708 215.473190,351.770416 
	C210.054214,351.814636 205.775894,348.153442 205.730377,342.544861 
	C205.554871,320.913330 205.554810,299.279083 205.694717,277.647156 
	C205.733047,271.720215 209.964676,267.994873 215.622528,268.109467 
	C221.276932,268.223999 225.120819,272.023682 225.152466,278.052979 
	C225.251160,296.857147 225.194458,315.662079 225.198029,334.958801 
z"/>
<path fill="#F8677E" opacity="1.000000" stroke="none" 
	d="
M331.825256,313.999939 
	C331.826263,302.017731 331.788269,290.535339 331.842926,279.053375 
	C331.875519,272.205383 335.408569,268.236420 341.388428,268.110352 
	C347.518463,267.981110 351.385681,272.071533 351.411285,279.135132 
	C351.485504,299.603119 351.479431,320.071716 351.415741,340.539795 
	C351.393585,347.661865 347.621338,351.814880 341.557892,351.772980 
	C335.426544,351.730560 331.874207,347.646088 331.837982,340.459717 
	C331.794373,331.806671 331.826141,323.153229 331.825256,313.999939 
z"/>
<path fill="#F8677E" opacity="1.000000" stroke="none" 
	d="
M268.725494,301.999939 
	C268.727936,293.846191 268.652740,286.191437 268.756866,278.539124 
	C268.844452,272.102844 272.512390,268.212982 278.316895,268.108978 
	C284.310822,268.001648 288.242584,271.993469 288.267670,278.656433 
	C288.345917,299.454254 288.341888,320.252686 288.270782,341.050568 
	C288.247772,347.777252 284.414215,351.791931 278.449219,351.755371 
	C272.485138,351.718811 268.791260,347.715302 268.751862,340.934723 
	C268.677399,328.123505 268.727325,315.311584 268.725494,301.999939 
z"/>
<path fill="#F4657C" opacity="1.000000" stroke="none" 
	d="
M394.887085,307.000000 
	C394.888550,297.173645 394.831635,287.846771 394.911682,278.521088 
	C394.966644,272.115570 398.644806,268.214661 404.492584,268.095428 
	C410.266724,267.977722 414.534637,271.860687 414.581329,278.115509 
	C414.739166,299.265137 414.730713,320.417328 414.583435,341.567108 
	C414.539612,347.856995 410.353119,351.826569 404.646118,351.792755 
	C398.679565,351.757385 394.940399,347.687561 394.905731,340.974915 
	C394.848053,329.816895 394.888184,318.658325 394.887085,307.000000 
z"/>
<path fill="#C2DFFB" opacity="1.000000" stroke="none" 
	d="
M388.039490,462.983765 
	C386.937378,470.817108 382.638702,475.381989 376.188538,475.975311 
	C370.178802,476.528076 364.598602,473.014130 362.518372,467.366943 
	C360.446228,461.741699 362.464386,455.470459 367.467682,451.987396 
	C376.001831,446.046326 386.680664,451.538422 388.039490,462.983765 
z"/>
<path fill="#C2E0FB" opacity="1.000000" stroke="none" 
	d="
M223.114166,451.798828 
	C229.806290,448.678711 235.339218,449.315002 239.514801,453.440033 
	C243.480286,457.357513 244.542847,463.588501 242.098190,468.589447 
	C239.673935,473.548676 234.598099,476.549164 229.113373,475.941650 
	C223.515533,475.321625 219.573380,472.345734 217.805038,466.890625 
	C215.813934,460.748169 217.865311,455.878510 223.114166,451.798828 
z"/>
</svg>